<?xml version="1.0" encoding="UTF-8"?>
<svg viewBox="0 0 600 300" fill="none" xmlns="http://www.w3.org/2000/svg" aria-label="CORE illustration: cracked wall with screwdrivers, construction workers vs residents">
  <!-- Background cream -->
  <rect width="600" height="300" fill="#FAF6EE"/>
  <!-- Diagonal stripe -->
  <polygon points="510,0 600,0 600,300 550,300" fill="#FF6B35" opacity="0.12"/>
  <!-- WALL - center divider -->
  <rect x="270" y="0" width="60" height="300" fill="#e0d8cc"/>
  <!-- Crack in wall -->
  <polyline points="295,40 288,80 302,120 285,160 298,200 288,240 295,280" stroke="#1a1a1a" stroke-width="3" fill="none" opacity="0.7"/>
  <polyline points="295,40 305,60 295,80" stroke="#1a1a1a" stroke-width="2" fill="none" opacity="0.4"/>
  <polyline points="302,120 312,135 305,150" stroke="#1a1a1a" stroke-width="2" fill="none" opacity="0.4"/>
  <!-- SCREWDRIVERS embedded in wall -->
  <rect x="250" y="96" width="90" height="8" rx="2" fill="#FF6B35"/>
  <polygon points="340,96 355,100 340,104" fill="#1a1a1a"/>
  <rect x="246" y="97" width="10" height="6" rx="1" fill="#1a1a1a"/>
  <g transform="rotate(-15, 300, 150)">
    <rect x="252" y="150" width="85" height="7" rx="2" fill="#FF6B35"/>
    <polygon points="337,150 350,153.5 337,157" fill="#1a1a1a"/>
    <rect x="248" y="151" width="10" height="5" rx="1" fill="#1a1a1a"/>
  </g>
  <g transform="rotate(10, 300, 200)">
    <rect x="255" y="195" width="80" height="7" rx="2" fill="#FF6B35"/>
    <polygon points="335,195 348,198.5 335,202" fill="#1a1a1a"/>
    <rect x="251" y="196" width="10" height="5" rx="1" fill="#1a1a1a"/>
  </g>
  <!-- Masonry fragments -->
  <polygon points="280,130 292,125 295,138 283,142" fill="#c0b8aa" opacity="0.8"/>
  <polygon points="285,165 298,160 300,175 288,178" fill="#c0b8aa" opacity="0.7"/>
  <circle cx="275" cy="145" r="4" fill="#c0b8aa" opacity="0.6"/>
  <circle cx="308" cy="178" r="3" fill="#c0b8aa" opacity="0.5"/>
  <!-- LEFT SIDE - Construction workers -->
  <rect x="0" y="0" width="270" height="300" fill="#FAF6EE"/>
  <circle cx="80" cy="120" r="22" fill="#FF6B35"/>
  <rect x="62" y="142" width="36" height="50" fill="#FF6B35"/>
  <rect x="58" y="155" width="15" height="35" rx="4" fill="#FF6B35"/>
  <rect x="83" y="155" width="15" height="35" rx="4" fill="#FF6B35"/>
  <ellipse cx="80" cy="106" rx="26" ry="10" fill="#1a1a1a"/>
  <rect x="56" y="100" width="48" height="15" rx="8" fill="#1a1a1a"/>
  <circle cx="75" cy="122" r="3" fill="#FAF6EE"/>
  <circle cx="85" cy="122" r="3" fill="#FAF6EE"/>
  <path d="M74,132 Q80,138 86,132" stroke="#FAF6EE" stroke-width="2" fill="none"/>
  <rect x="93" y="148" width="55" height="8" rx="2" fill="#1a1a1a"/>
  <polygon points="148,148 162,152 148,156" fill="#FF6B35"/>
  <circle cx="175" cy="145" r="16" fill="#1a1a1a" opacity="0.8"/>
  <rect x="163" y="161" width="24" height="35" fill="#1a1a1a" opacity="0.8"/>
  <ellipse cx="175" cy="133" rx="19" ry="7" fill="#FF6B35"/>
  <rect x="158" y="128" width="34" height="10" rx="6" fill="#FF6B35"/>
  <circle cx="172" cy="147" r="2" fill="#FAF6EE"/>
  <circle cx="179" cy="147" r="2" fill="#FAF6EE"/>
  <!-- Clipboard -->
  <rect x="130" y="105" width="55" height="70" rx="3" fill="#FAF6EE" stroke="#1a1a1a" stroke-width="1.5"/>
  <rect x="148" y="98" width="18" height="12" rx="2" fill="#1a1a1a"/>
  <line x1="140" y1="125" x2="175" y2="125" stroke="#1a1a1a" stroke-width="1.5" opacity="0.5"/>
  <line x1="140" y1="135" x2="175" y2="135" stroke="#1a1a1a" stroke-width="1.5" opacity="0.5"/>
  <line x1="140" y1="145" x2="165" y2="145" stroke="#FF6B35" stroke-width="1.5" opacity="0.7"/>
  <line x1="140" y1="155" x2="175" y2="155" stroke="#1a1a1a" stroke-width="1.5" opacity="0.5"/>
  <text x="80" y="225" font-family="Inter,sans-serif" font-size="8" font-weight="700" letter-spacing="2" fill="#1a1a1a" text-anchor="middle" opacity="0.5">OUTSIDE</text>
  <!-- RIGHT SIDE - Residents -->
  <rect x="330" y="0" width="270" height="300" fill="#FFF8F0"/>
  <circle cx="450" cy="120" r="20" fill="#FAF6EE" stroke="#1a1a1a" stroke-width="2"/>
  <rect x="434" y="140" width="32" height="45" fill="#FAF6EE" stroke="#1a1a1a" stroke-width="2"/>
  <rect x="424" y="145" width="14" height="30" rx="4" fill="#FAF6EE" stroke="#1a1a1a" stroke-width="1.5"/>
  <rect x="462" y="145" width="14" height="30" rx="4" fill="#FAF6EE" stroke="#1a1a1a" stroke-width="1.5"/>
  <circle cx="444" cy="118" r="3" fill="#1a1a1a"/>
  <circle cx="456" cy="118" r="3" fill="#1a1a1a"/>
  <path d="M444,128 Q450,125 456,128" stroke="#1a1a1a" stroke-width="2" fill="none"/>
  <rect x="462" y="148" width="40" height="50" rx="2" fill="#FAF6EE" stroke="#1a1a1a" stroke-width="1.5"/>
  <line x1="468" y1="160" x2="496" y2="160" stroke="#1a1a1a" stroke-width="1" opacity="0.5"/>
  <line x1="468" y1="168" x2="496" y2="168" stroke="#1a1a1a" stroke-width="1" opacity="0.5"/>
  <line x1="468" y1="176" x2="488" y2="176" stroke="#FF6B35" stroke-width="1.5" opacity="0.8"/>
  <line x1="468" y1="184" x2="496" y2="184" stroke="#1a1a1a" stroke-width="1" opacity="0.5"/>
  <text x="450" y="225" font-family="Inter,sans-serif" font-size="8" font-weight="700" letter-spacing="2" fill="#1a1a1a" text-anchor="middle" opacity="0.5">INSIDE</text>
  <rect x="375" y="255" width="150" height="25" rx="4" fill="#1a1a1a"/>
  <text x="450" y="271" font-family="Inter,sans-serif" font-size="8" font-weight="700" letter-spacing="1.5" fill="#FF6B35" text-anchor="middle">CURRENT ON RENT</text>
  <text x="300" y="292" font-family="Inter,sans-serif" font-size="7" font-weight="700" letter-spacing="2" fill="#1a1a1a" text-anchor="middle" opacity="0.4">CALLE TRIBULETE 7 · LAVAPIÉS · MADRID</text>
</svg>