<?xml version="1.0" encoding="UTF-8"?>
<svg viewBox="0 0 600 300" fill="none" xmlns="http://www.w3.org/2000/svg" aria-label="Hero illustration: Madrid rooftops and city silhouette">
  <!-- Background sky -->
  <rect width="600" height="300" fill="#1a1a1a"/>
  <!-- Diagonal orange stripe accent -->
  <polygon points="480,0 600,0 600,300 530,300" fill="#FF6B35" opacity="0.2"/>
  <!-- Stars/dots in sky -->
  <circle cx="50" cy="30" r="1.5" fill="#FAF6EE" opacity="0.6"/>
  <circle cx="120" cy="20" r="1" fill="#FAF6EE" opacity="0.4"/>
  <circle cx="200" cy="40" r="1.5" fill="#FAF6EE" opacity="0.5"/>
  <circle cx="320" cy="25" r="1" fill="#FAF6EE" opacity="0.4"/>
  <circle cx="410" cy="35" r="1.5" fill="#FAF6EE" opacity="0.6"/>
  <circle cx="70" cy="55" r="1" fill="#FAF6EE" opacity="0.3"/>
  <circle cx="160" cy="15" r="1" fill="#FAF6EE" opacity="0.5"/>
  <!-- City silhouette background (distant buildings) -->
  <rect x="0" y="160" width="600" height="140" fill="#2a2a2a"/>
  <!-- Background buildings (distant) -->
  <rect x="10" y="130" width="40" height="70" fill="#222222"/>
  <rect x="20" y="120" width="20" height="10" fill="#222222"/>
  <rect x="60" y="145" width="55" height="55" fill="#1e1e1e"/>
  <rect x="75" y="135" width="25" height="10" fill="#1e1e1e"/>
  <rect x="125" y="120" width="35" height="80" fill="#242424"/>
  <rect x="165" y="140" width="45" height="60" fill="#1d1d1d"/>
  <rect x="175" y="128" width="25" height="12" fill="#1d1d1d"/>
  <rect x="220" y="135" width="50" height="65" fill="#212121"/>
  <rect x="235" y="115" width="20" height="20" fill="#212121"/>
  <rect x="280" y="142" width="40" height="58" fill="#1f1f1f"/>
  <rect x="330" y="125" width="45" height="75" fill="#232323"/>
  <rect x="340" y="110" width="25" height="15" fill="#232323"/>
  <rect x="385" y="138" width="50" height="62" fill="#1e1e1e"/>
  <rect x="400" y="125" width="20" height="13" fill="#1e1e1e"/>
  <rect x="445" y="130" width="40" height="70" fill="#222222"/>
  <rect x="495" y="145" width="50" height="55" fill="#1d1d1d"/>
  <rect x="555" y="135" width="45" height="65" fill="#212121"/>
  <!-- Main foreground building (left) -->
  <rect x="30" y="175" width="120" height="125" fill="#2d2d2d"/>
  <!-- Windows on left building -->
  <rect x="45" y="190" width="18" height="22" fill="#FF6B35" opacity="0.15"/>
  <rect x="75" y="190" width="18" height="22" fill="#FAF6EE" opacity="0.08"/>
  <rect x="105" y="190" width="18" height="22" fill="#FAF6EE" opacity="0.08"/>
  <rect x="45" y="225" width="18" height="22" fill="#FAF6EE" opacity="0.08"/>
  <rect x="75" y="225" width="18" height="22" fill="#FF6B35" opacity="0.3"/>
  <rect x="105" y="225" width="18" height="22" fill="#FAF6EE" opacity="0.08"/>
  <!-- Balcony on left building -->
  <rect x="65" y="258" width="50" height="6" fill="#FF6B35" opacity="0.6"/>
  <line x1="65" y1="258" x2="65" y2="270" stroke="#FF6B35" stroke-width="1.5" opacity="0.5"/>
  <line x1="115" y1="258" x2="115" y2="270" stroke="#FF6B35" stroke-width="1.5" opacity="0.5"/>
  <line x1="80" y1="258" x2="80" y2="265" stroke="#FAF6EE" stroke-width="1" opacity="0.3"/>
  <line x1="90" y1="258" x2="90" y2="265" stroke="#FAF6EE" stroke-width="1" opacity="0.3"/>
  <line x1="100" y1="258" x2="100" y2="265" stroke="#FAF6EE" stroke-width="1" opacity="0.3"/>
  <!-- FIGURE AT WINDOW -->
  <rect x="68" y="220" width="24" height="30" fill="#FF6B35" opacity="0.35"/>
  <rect x="68" y="220" width="24" height="30" fill="none" stroke="#FAF6EE" stroke-width="1.5" opacity="0.6"/>
  <circle cx="80" cy="228" r="5" fill="#FAF6EE" opacity="0.9"/>
  <rect x="76" y="233" width="8" height="12" fill="#FAF6EE" opacity="0.9"/>
  <!-- Main foreground building (right) -->
  <rect x="430" y="168" width="130" height="132" fill="#2a2a2a"/>
  <!-- Windows on right building -->
  <rect x="445" y="185" width="18" height="22" fill="#FAF6EE" opacity="0.07"/>
  <rect x="475" y="185" width="18" height="22" fill="#FF6B35" opacity="0.2"/>
  <rect x="505" y="185" width="18" height="22" fill="#FAF6EE" opacity="0.07"/>
  <rect x="535" y="185" width="18" height="22" fill="#FAF6EE" opacity="0.07"/>
  <rect x="445" y="220" width="18" height="22" fill="#FAF6EE" opacity="0.07"/>
  <rect x="475" y="220" width="18" height="22" fill="#FAF6EE" opacity="0.07"/>
  <rect x="505" y="220" width="18" height="22" fill="#FF6B35" opacity="0.15"/>
  <rect x="535" y="220" width="18" height="22" fill="#FAF6EE" opacity="0.07"/>
  <rect x="445" y="255" width="18" height="22" fill="#FAF6EE" opacity="0.07"/>
  <rect x="475" y="255" width="18" height="22" fill="#FAF6EE" opacity="0.07"/>
  <rect x="505" y="255" width="18" height="22" fill="#FAF6EE" opacity="0.07"/>
  <!-- Balcony right building -->
  <rect x="462" y="247" width="55" height="6" fill="#FF6B35" opacity="0.5"/>
  <line x1="462" y1="247" x2="462" y2="258" stroke="#FF6B35" stroke-width="1.5" opacity="0.4"/>
  <line x1="517" y1="247" x2="517" y2="258" stroke="#FF6B35" stroke-width="1.5" opacity="0.4"/>
  <!-- Center ornate building -->
  <rect x="230" y="155" width="140" height="145" fill="#333333"/>
  <polygon points="230,155 300,130 370,155" fill="#2a2a2a"/>
  <rect x="285" y="130" width="30" height="25" fill="#2a2a2a"/>
  <rect x="293" y="118" width="14" height="12" fill="#FF6B35" opacity="0.4"/>
  <!-- Windows center building -->
  <rect x="248" y="170" width="22" height="28" fill="#FF6B35" opacity="0.12"/>
  <rect x="288" y="170" width="22" height="28" fill="#FAF6EE" opacity="0.1"/>
  <rect x="328" y="170" width="22" height="28" fill="#FAF6EE" opacity="0.1"/>
  <rect x="248" y="212" width="22" height="28" fill="#FAF6EE" opacity="0.1"/>
  <rect x="288" y="212" width="22" height="28" fill="#FF6B35" opacity="0.25"/>
  <rect x="328" y="212" width="22" height="28" fill="#FAF6EE" opacity="0.1"/>
  <rect x="248" y="252" width="22" height="28" fill="#FAF6EE" opacity="0.1"/>
  <rect x="288" y="252" width="22" height="28" fill="#FAF6EE" opacity="0.1"/>
  <rect x="328" y="252" width="22" height="28" fill="#FAF6EE" opacity="0.1"/>
  <!-- Street level -->
  <rect x="0" y="280" width="600" height="20" fill="#111111"/>
  <!-- Label -->
  <text x="300" y="295" font-family="Inter,sans-serif" font-size="7" font-weight="700" letter-spacing="3" fill="#FF6B35" text-anchor="middle" opacity="0.8">MADRID · GROUND SIGNAL · FEBRUARY 2026</text>
</svg>