<?xml version="1.0" encoding="UTF-8"?>
<svg viewBox="0 0 600 300" fill="none" xmlns="http://www.w3.org/2000/svg" aria-label="Downtown illustration: one person, two states, split-room composition">
  <!-- Split background -->
  <rect x="0" y="0" width="300" height="300" fill="#1e2433"/>
  <rect x="300" y="0" width="300" height="300" fill="#FFF8F0"/>
  <!-- Dividing line -->
  <line x1="300" y1="0" x2="300" y2="300" stroke="#FF6B35" stroke-width="3"/>
  <!-- LEFT SIDE: The version that left -->
  <rect x="60" y="165" width="180" height="12" rx="3" fill="#2d3748"/>
  <rect x="80" y="177" width="10" height="40" fill="#2d3748"/>
  <rect x="160" y="177" width="10" height="40" fill="#2d3748"/>
  <rect x="90" y="145" width="80" height="55" rx="2" fill="#FAF6EE" opacity="0.1"/>
  <line x1="100" y1="155" x2="160" y2="155" stroke="#FAF6EE" stroke-width="1" opacity="0.3"/>
  <line x1="100" y1="163" x2="160" y2="163" stroke="#FAF6EE" stroke-width="1" opacity="0.3"/>
  <line x1="100" y1="171" x2="150" y2="171" stroke="#FAF6EE" stroke-width="1" opacity="0.3"/>
  <line x1="95" y1="150" x2="165" y2="195" stroke="#DC2626" stroke-width="2" opacity="0.8"/>
  <line x1="165" y1="150" x2="95" y2="195" stroke="#DC2626" stroke-width="2" opacity="0.8"/>
  <circle cx="148" cy="101" r="22" fill="#4a5a70"/>
  <circle cx="143" cy="99" r="3" fill="rgba(250,246,238,0.7)"/>
  <circle cx="155" cy="99" r="3" fill="rgba(250,246,238,0.7)"/>
  <path d="M143,110 Q149,106 155,110" stroke="rgba(250,246,238,0.7)" stroke-width="2" fill="none"/>
  <rect x="130" y="122" width="36" height="45" rx="3" fill="#4a5a70"/>
  <rect x="90" y="140" width="45" height="12" rx="6" fill="#4a5a70"/>
  <rect x="162" y="140" width="45" height="12" rx="6" fill="#4a5a70"/>
  <rect x="50" y="60" width="45" height="35" rx="4" fill="#2d3748" stroke="#FF6B35" stroke-width="1.5"/>
  <circle cx="72" cy="78" r="8" fill="none" stroke="#FF6B35" stroke-width="1.5"/>
  <circle cx="72" cy="78" r="3" fill="#FF6B35"/>
  <text x="72" y="108" font-family="Inter,sans-serif" font-size="7" fill="rgba(250,246,238,0.5)" text-anchor="middle">VOICEMAIL</text>
  <path d="M220,55 Q223,45 226,55 Q229,65 223,68 Q217,65 220,55 Z" fill="#0EA5E9" opacity="0.7"/>
  <line x1="223" y1="30" x2="223" y2="50" stroke="#0EA5E9" stroke-width="1.5" stroke-dasharray="3 2" opacity="0.5"/>
  <text x="150" y="258" font-family="Inter,sans-serif" font-size="8" font-weight="700" letter-spacing="2" fill="rgba(250,246,238,0.4)" text-anchor="middle">THE VERSION THAT LEFT</text>
  <!-- RIGHT SIDE: The version that stayed -->
  <rect x="360" y="165" width="180" height="12" rx="3" fill="#e8d5b7"/>
  <rect x="380" y="177" width="10" height="40" fill="#e8d5b7"/>
  <rect x="460" y="177" width="10" height="40" fill="#e8d5b7"/>
  <rect x="390" y="140" width="85" height="60" rx="2" fill="#FAF6EE" stroke="#1a1a1a" stroke-width="1.5"/>
  <line x1="432" y1="140" x2="432" y2="200" stroke="#1a1a1a" stroke-width="1" opacity="0.3"/>
  <line x1="400" y1="155" x2="425" y2="155" stroke="#1a1a1a" stroke-width="1" opacity="0.5"/>
  <line x1="400" y1="163" x2="425" y2="163" stroke="#1a1a1a" stroke-width="1" opacity="0.5"/>
  <line x1="400" y1="171" x2="422" y2="171" stroke="#FF6B35" stroke-width="1.5" opacity="0.8"/>
  <line x1="400" y1="179" x2="425" y2="179" stroke="#1a1a1a" stroke-width="1" opacity="0.5"/>
  <line x1="440" y1="155" x2="466" y2="155" stroke="#1a1a1a" stroke-width="1" opacity="0.5"/>
  <line x1="440" y1="163" x2="466" y2="163" stroke="#1a1a1a" stroke-width="1" opacity="0.5"/>
  <line x1="440" y1="171" x2="460" y2="171" stroke="#1a1a1a" stroke-width="1" opacity="0.5"/>
  <rect x="380" y="68" width="40" height="30" rx="5" fill="#1a1a1a"/>
  <circle cx="400" cy="83" r="9" fill="none" stroke="#FF6B35" stroke-width="2"/>
  <circle cx="400" cy="83" r="5" fill="#FF6B35" opacity="0.5"/>
  <rect x="412" y="71" width="8" height="5" rx="1" fill="#FF6B35"/>
  <circle cx="450" cy="100" r="22" fill="#FAF6EE" stroke="#1a1a1a" stroke-width="2"/>
  <circle cx="444" cy="98" r="3" fill="#1a1a1a"/>
  <circle cx="456" cy="98" r="3" fill="#1a1a1a"/>
  <path d="M444,108 Q450,112 456,108" stroke="#1a1a1a" stroke-width="2" fill="none"/>
  <rect x="432" y="122" width="36" height="45" rx="3" fill="#FAF6EE" stroke="#1a1a1a" stroke-width="1.5"/>
  <rect x="400" y="140" width="35" height="12" rx="6" fill="#FAF6EE" stroke="#1a1a1a" stroke-width="1.5"/>
  <rect x="463" y="140" width="35" height="12" rx="6" fill="#FAF6EE" stroke="#1a1a1a" stroke-width="1.5"/>
  <rect x="340" y="58" width="90" height="28" rx="4" fill="#1a1a1a"/>
  <text x="385" y="70" font-family="Inter,sans-serif" font-size="6.5" font-weight="700" letter-spacing="1" fill="#FF6B35" text-anchor="middle">JUZGADO N&#xBA; 17</text>
  <text x="385" y="80" font-family="Inter,sans-serif" font-size="6" fill="rgba(250,246,238,0.6)" text-anchor="middle">CASE ON FILE</text>
  <text x="450" y="258" font-family="Inter,sans-serif" font-size="8" font-weight="700" letter-spacing="2" fill="rgba(26,26,26,0.45)" text-anchor="middle">THE VERSION THAT STAYED</text>
  <text x="300" y="290" font-family="Inter,sans-serif" font-size="7" font-weight="700" letter-spacing="2.5" fill="#FF6B35" text-anchor="middle" opacity="0.8">ONE ROOM · TWO READS</text>
</svg>