<?xml version="1.0" encoding="UTF-8"?>
<svg viewBox="0 0 600 220" fill="none" xmlns="http://www.w3.org/2000/svg" aria-label="Radar display — four domain signals">
          <rect width="600" height="220" fill="#1a1a1a" rx="10"/>
          <!-- Radar concentric circles -->
          <circle cx="300" cy="110" r="90" fill="none" stroke="rgba(255,107,53,0.15)" stroke-width="1.5"/>
          <circle cx="300" cy="110" r="65" fill="none" stroke="rgba(255,107,53,0.2)" stroke-width="1.5"/>
          <circle cx="300" cy="110" r="40" fill="none" stroke="rgba(255,107,53,0.3)" stroke-width="1.5"/>
          <circle cx="300" cy="110" r="16" fill="rgba(255,107,53,0.2)"/>
          <!-- Cross hairs -->
          <line x1="210" y1="110" x2="390" y2="110" stroke="rgba(255,107,53,0.1)" stroke-width="1"/>
          <line x1="300" y1="20" x2="300" y2="200" stroke="rgba(255,107,53,0.1)" stroke-width="1"/>
          <!-- Blips -->
          <!-- THRUST: close -->
          <circle cx="270" cy="75" r="6" fill="#FF6B35"/>
          <circle cx="270" cy="75" r="10" fill="none" stroke="#FF6B35" stroke-width="1" opacity="0.5"/>
          <text x="248" y="64" font-family="Inter,sans-serif" font-size="8" fill="#FF6B35" font-weight="700">THRUST</text>
          <!-- AXIS: mid-range -->
          <circle cx="355" cy="80" r="6" fill="#7C3AED"/>
          <circle cx="355" cy="80" r="10" fill="none" stroke="#7C3AED" stroke-width="1" opacity="0.5"/>
          <text x="365" y="75" font-family="Inter,sans-serif" font-size="8" fill="#7C3AED" font-weight="700">AXIS</text>
          <!-- FLOW: mid-range -->
          <circle cx="250" cy="155" r="6" fill="#0EA5E9"/>
          <circle cx="250" cy="155" r="10" fill="none" stroke="#0EA5E9" stroke-width="1" opacity="0.5"/>
          <text x="218" y="173" font-family="Inter,sans-serif" font-size="8" fill="#0EA5E9" font-weight="700">FLOW</text>
          <!-- GROUND: closest -->
          <circle cx="320" cy="125" r="6" fill="#16A34A"/>
          <circle cx="320" cy="125" r="10" fill="none" stroke="#16A34A" stroke-width="1" opacity="0.5"/>
          <text x="330" y="140" font-family="Inter,sans-serif" font-size="8" fill="#16A34A" font-weight="700">GROUND</text>
          <!-- Scan sweep arc -->
          <path d="M300 110 L300 25 A85 85 0 0 1 375 155 Z" fill="rgba(255,107,53,0.04)"/>
        </svg>