<?xml version="1.0" encoding="UTF-8"?>
<svg viewBox="0 0 600 260" fill="none" xmlns="http://www.w3.org/2000/svg" aria-label="Structural Validation Grid — building x-ray">
          <rect width="600" height="260" fill="#FAF6EE"/>
          <!-- Building outline -->
          <rect x="200" y="50" width="200" height="180" rx="4" fill="none" stroke="#1a1a1a" stroke-width="2.5" stroke-dasharray="8 4"/>
          <!-- X-ray skeleton glow -->
          <rect x="200" y="50" width="200" height="180" rx="4" fill="#FF6B35" opacity="0.04"/>
          <!-- Floor dividers -->
          <line x1="200" y1="110" x2="400" y2="110" stroke="#1a1a1a" stroke-width="1.5" stroke-dasharray="5 3"/>
          <line x1="200" y1="170" x2="400" y2="170" stroke="#1a1a1a" stroke-width="1.5" stroke-dasharray="5 3"/>
          <!-- Column dividers -->
          <line x1="300" y1="50" x2="300" y2="230" stroke="#1a1a1a" stroke-width="1.5" stroke-dasharray="5 3"/>
          <!-- Gear (operations) -->
          <circle cx="245" cy="80" r="18" fill="none" stroke="#FF6B35" stroke-width="2.5"/>
          <circle cx="245" cy="80" r="8" fill="#FF6B35"/>
          <path d="M245 58 L248 66 L245 62 L242 66 Z" fill="#FF6B35"/>
          <path d="M245 102 L242 94 L245 98 L248 94 Z" fill="#FF6B35"/>
          <path d="M223 80 L231 77 L227 80 L231 83 Z" fill="#FF6B35"/>
          <path d="M267 80 L259 83 L263 80 L259 77 Z" fill="#FF6B35"/>
          <!-- Dollar sign (revenue) -->
          <circle cx="355" cy="80" r="18" fill="none" stroke="#FF6B35" stroke-width="2.5"/>
          <text x="355" y="86" font-family="Inter,sans-serif" font-size="20" font-weight="700" fill="#FF6B35" text-anchor="middle">$</text>
          <!-- Question mark center -->
          <circle cx="300" cy="140" r="28" fill="#1a1a1a"/>
          <text x="300" y="148" font-family="DM Serif Display,serif" font-size="26" font-style="italic" fill="#FAF6EE" text-anchor="middle">?</text>
          <!-- Small label around question -->
          <text x="300" y="172" font-family="Inter,sans-serif" font-size="7" fill="rgba(0,0,0,0.4)" text-anchor="middle" letter-spacing="1">WHAT REMAINS?</text>
          <!-- People icons at bottom -->
          <circle cx="235" cy="195" r="8" fill="#1a1a1a"/>
          <rect x="228" y="203" width="14" height="10" rx="2" fill="#1a1a1a"/>
          <circle cx="300" cy="198" r="8" fill="#FF6B35"/>
          <rect x="293" y="206" width="14" height="10" rx="2" fill="#FF6B35"/>
          <circle cx="365" cy="195" r="8" fill="#1a1a1a"/>
          <rect x="358" y="203" width="14" height="10" rx="2" fill="#1a1a1a"/>
          <!-- Scan lines across building -->
          <line x1="200" y1="65" x2="400" y2="65" stroke="#FF6B35" stroke-width="0.8" opacity="0.3"/>
          <line x1="200" y1="85" x2="400" y2="85" stroke="#FF6B35" stroke-width="0.8" opacity="0.25"/>
          <line x1="200" y1="125" x2="400" y2="125" stroke="#FF6B35" stroke-width="0.8" opacity="0.2"/>
          <line x1="200" y1="145" x2="400" y2="145" stroke="#FF6B35" stroke-width="0.8" opacity="0.2"/>
          <!-- Side labels -->
          <text x="100" y="83" font-family="Inter,sans-serif" font-size="8" fill="rgba(0,0,0,0.5)" text-anchor="middle">OPERATIONS</text>
          <text x="500" y="83" font-family="Inter,sans-serif" font-size="8" fill="rgba(0,0,0,0.5)" text-anchor="middle">REVENUE</text>
          <text x="300" y="248" font-family="Inter,sans-serif" font-size="8" fill="rgba(0,0,0,0.35)" text-anchor="middle" font-style="italic">The Structural Validation Grid</text>
          <!-- Left arrows -->
          <line x1="130" y1="80" x2="195" y2="80" stroke="rgba(0,0,0,0.2)" stroke-width="1.5" marker-end="url(#arrow)"/>
          <line x1="470" y1="80" x2="405" y2="80" stroke="rgba(0,0,0,0.2)" stroke-width="1.5"/>
          <polygon points="406,77 400,80 406,83" fill="rgba(0,0,0,0.2)"/>
        </svg>